<svg width="501" height="501" viewBox="0 0 501 501" fill="none" xmlns="http://www.w3.org/2000/svg">
<path d="M0 250.501C0 388.776 112.224 501 250.5 501C388.776 501 501 388.776 501 250.501C501 112.225 388.776 0.00109863 250.5 0.00109863C112.625 -0.399719 0 112.225 0 250.501ZM365.93 135.07C365.93 198.798 314.227 250.1 250.901 250.1C187.574 250.1 135.871 301.803 135.871 365.129C135.871 428.456 187.574 480.158 250.901 480.158C258.516 480.158 266.131 479.758 273.346 478.956C269.738 479.357 266.131 479.758 262.524 479.758C258.516 479.758 254.508 480.158 250.5 480.158C127.454 480.158 26.8535 383.566 20.4407 261.723C20.0399 257.715 20.04 253.707 20.04 249.699C20.04 245.691 20.0399 241.683 20.4407 237.675C20.8415 233.266 21.2424 228.857 21.6432 224.449C22.4448 218.036 23.2463 211.623 24.4487 205.21C24.8495 203.607 25.2504 201.603 25.6512 200C48.4968 96.9946 140.28 19.6404 250.5 19.6404C252.504 19.6404 254.508 19.6404 256.512 19.6404C317.434 23.2475 365.93 73.7482 365.93 135.07Z" fill="#CC0001"/>
</svg>
