<svg width="571" height="550" viewBox="0 0 571 550" fill="none" xmlns="http://www.w3.org/2000/svg">
<path d="M181.417 378.916C169.647 383.85 165.176 395.945 172.869 402.85C188.698 417.058 253.861 410.04 256.926 400.408C259.947 390.92 205.979 368.618 181.417 378.916Z" stroke="#CC0001" stroke-width="10" stroke-miterlimit="10"/>
<path d="M210.584 347.313C237.471 337.885 282.617 405.014 263.982 420.863C252.524 430.608 224.788 429.39 202.17 426.187C180.936 423.181 150.596 410.889 143.11 390.475C139.147 379.638 141.526 364.197 149.92 358.79C156.417 354.606 165.187 356.488 167.122 355.792C176.346 359.622 177.699 361.111 185.048 362.01C194.653 363.185 203.19 349.906 210.584 347.313Z" stroke="#CC0001" stroke-width="10" stroke-miterlimit="10"/>
<path d="M237.864 314.296C269.091 319.287 303.024 417.338 269.15 439.903C247.578 454.274 209.968 447.928 183.754 440.33C159.674 433.352 119.577 410.062 111.465 376.686C106.749 357.292 112.479 330.01 128.897 322.119C141.985 315.83 158.847 321.238 161.816 321.654C179.366 331.106 180.785 335.914 193.852 339.151C211.154 343.432 224.814 312.2 237.864 314.296Z" stroke="#CC0001" stroke-width="10" stroke-miterlimit="10"/>
<path d="M263.167 281.498C297.644 290.699 321.454 429.801 272.342 459.159C240.645 478.105 193.151 466.74 163.361 454.69C136.411 443.793 86.7263 409.501 77.8419 363.113C72.4821 335.138 81.4264 296.075 105.894 285.665C125.555 277.297 150.664 285.885 154.528 287.733C181.54 300.661 181.882 310.934 200.688 316.509C225.669 323.936 245.11 276.69 263.167 281.498Z" stroke="#CC0001" stroke-width="10" stroke-miterlimit="10"/>
<path d="M286.948 250.192C325.13 263.465 338.3 443.616 274.011 479.91C232.148 503.333 174.79 487.074 141.449 470.547C111.599 455.754 52.3882 410.462 42.686 351.032C36.7222 314.501 48.8407 263.642 81.3609 250.697C107.607 240.259 140.762 252.502 145.712 255.294C180.531 274.939 181.432 287.488 205.971 295.362C238.636 305.934 264.093 242.25 286.948 250.192Z" stroke="#CC0001" stroke-width="10" stroke-miterlimit="10"/>
<path d="M55.759 216.145C88.5784 203.64 129.761 219.522 135.827 223.275C178.36 249.593 179.933 264.364 210.196 274.611C250.552 288.275 282.175 207.989 309.64 219.283C351.829 236.631 354.196 458.061 274.593 501.057C222.651 529.112 155.317 507.825 118.446 486.798C85.7005 468.126 17.0072 411.833 6.46445 339.351C-0.0891642 294.267 15.1808 231.606 55.759 216.145Z" stroke="#CC0001" stroke-width="10" stroke-miterlimit="10"/>
<path d="M410.897 193.33C397.969 193.221 382.465 170.779 394.059 167.032C400.756 164.864 418.484 168.292 425.448 174.393C435.256 182.977 419.792 193.407 410.897 193.33Z" stroke="#CC0001" stroke-width="10" stroke-miterlimit="10"/>
<path d="M375.763 170.175C377.029 167.163 382.952 165.825 388.358 162.158C399.322 154.714 400.895 151.178 408.683 146.689C411.72 144.935 415.806 142.63 419.795 143.685C425.904 145.303 427.429 152.301 435.182 164.627C445.235 180.644 449.041 184.785 446.169 193.273C445.5 195.246 444.633 201.638 439.792 205.536C433.088 210.926 425.229 206.763 415.404 210.33C403.605 214.608 397.755 222.223 392.635 218.858C389.027 216.488 388.893 209.997 386.192 198.694C384.135 190.084 382.841 184.434 380.34 179.826C377.339 174.338 374.356 173.523 375.763 170.175Z" stroke="#CC0001" stroke-width="10" stroke-miterlimit="10"/>
<path d="M356.003 176.452C356.222 171.113 364.6 168.529 371.504 160.814C385.662 144.989 379.103 133.681 390.452 122.119C395.268 117.211 402.824 112.456 410.398 113.378C421.146 114.687 424.756 125.801 441.302 148.334C462.935 177.795 472.15 183.565 470.13 199.265C469.717 202.465 469.315 214.751 460.861 222.146C449.586 232.008 436.071 223.036 418.419 230.448C398.695 238.719 391.324 256.401 384.674 252.742C380.055 250.201 381.824 239.968 378.274 220.01C375.761 205.824 374.208 197.534 369.184 190.743C362.844 182.179 355.766 182.25 356.003 176.452Z" stroke="#CC0001" stroke-width="10" stroke-miterlimit="10"/>
<path d="M336.222 182.66C335.368 175.009 346.215 171.161 354.629 159.4C371.954 135.187 357.017 116.261 372.202 97.4778C378.701 89.441 389.848 82.2512 400.981 83.0012C416.41 84.0394 422.112 99.1833 447.426 131.972C480.707 174.815 495.039 182.358 494.099 205.188C493.914 209.64 493.999 227.79 481.938 238.696C466.089 253.021 446.89 239.224 421.445 250.503C393.777 262.767 384.91 290.508 376.709 286.566C371.082 283.84 374.686 269.877 370.352 241.263C367.361 221.501 365.557 210.61 358.023 201.598C348.312 189.984 337.137 190.903 336.222 182.66Z" stroke="#CC0001" stroke-width="10" stroke-miterlimit="10"/>
<path d="M316.396 188.852C314.479 178.896 327.765 173.771 337.71 157.971C358.163 125.356 334.818 98.8867 353.909 72.8226C362.069 61.6713 376.835 52.0431 391.521 52.6078C411.643 53.3835 419.345 72.6087 453.492 115.596C498.316 171.894 517.823 181.192 517.997 211.098C518.031 216.801 518.595 240.798 502.941 255.229C482.499 274.001 457.652 255.386 424.397 270.544C388.78 286.783 378.416 324.609 368.7 320.376C362.061 317.473 367.503 299.768 362.386 262.501C358.906 237.162 356.863 223.683 346.819 212.438C333.729 197.79 318.459 199.558 316.396 188.852Z" stroke="#CC0001" stroke-width="10" stroke-miterlimit="10"/>
<path d="M296.533 195.041C299.744 208.217 319.103 205.593 335.57 223.275C348.127 236.757 350.41 252.816 354.376 283.737C360.266 329.654 352.994 351.104 360.645 354.181C371.891 358.707 383.747 310.794 427.32 290.582C468.369 271.542 498.914 295.014 523.915 271.759C543.188 253.829 542.117 223.986 541.866 217.001C540.538 180.028 515.888 168.968 459.519 99.2147C416.536 46.0283 406.842 22.7277 382.015 22.2115C363.779 21.8322 345.386 33.9046 335.57 48.1644C312.584 81.5325 344.383 115.559 320.753 156.539C309.301 176.398 293.544 182.783 296.533 195.041Z" stroke="#CC0001" stroke-width="10" stroke-miterlimit="10"/>
<path d="M460.815 407.113C457.441 405.402 450.358 408.699 449.731 413.836C449.021 419.662 457.037 424.482 460.559 422.985C464.724 421.211 465.291 409.378 460.815 407.113Z" stroke="#CC0001" stroke-width="10" stroke-miterlimit="10"/>
<path d="M470.321 438.072C476.071 432.69 478.584 422.814 481.459 405.884C484.308 389.098 483.861 377.079 481.356 376.207C479.992 375.736 476.125 379.418 472.808 382.116C466.599 387.152 455.971 386.593 453.247 387.138C443.274 389.135 440.345 392.842 436.176 399.944C434.247 403.223 429.748 410.496 427.768 419.052C424.747 432.008 411.21 436.001 412.86 441.194C414.247 445.529 427.66 446.582 436.356 446.704C448.819 446.881 461.431 446.382 470.321 438.072Z" stroke="#CC0001" stroke-width="10" stroke-miterlimit="10"/>
<path d="M480.288 452.54C489.739 442.923 493.458 426.783 499.185 396.601C505.004 366.273 504.967 345.471 502.1 344.695C499.949 344.102 492.982 351.6 487.061 356.959C475.9 367.103 455.92 365.435 451.802 366.085C433.025 368.988 428.398 375.944 421.12 389.092C418.088 394.568 409.771 407.915 405.981 423.678C400.149 447.825 372.495 454.148 374.783 463.1C376.695 470.555 402.34 471.699 418.476 471.086C441.26 470.199 464.317 468.796 480.288 452.54Z" stroke="#CC0001" stroke-width="10" stroke-miterlimit="10"/>
<path d="M490.201 466.914C503.362 453.064 508.243 430.651 516.854 387.224C525.599 343.346 526.006 313.808 522.787 313.073C519.838 312.388 509.776 323.682 501.268 331.716C485.183 346.994 455.826 344.185 450.312 344.921C422.736 348.605 416.384 358.909 406.018 378.132C401.881 385.801 389.751 405.225 384.146 428.187C375.51 463.528 333.738 472.175 336.658 484.89C339.097 495.465 376.98 496.745 400.55 495.345C433.649 493.477 467.186 491.132 490.201 466.914Z" stroke="#CC0001" stroke-width="10" stroke-miterlimit="10"/>
<path d="M500.083 481.279C516.962 463.197 523 434.507 534.495 377.835C546.177 320.414 547.032 282.149 543.448 281.438C539.698 280.688 526.536 295.733 515.447 306.447C494.407 326.825 455.706 322.903 448.796 323.745C412.421 328.162 404.297 341.84 390.888 367.157C385.628 377.014 369.703 402.522 362.289 432.684C350.84 479.217 294.949 490.191 298.511 506.667C301.471 520.357 351.592 521.723 382.599 519.595C425.998 516.666 470.036 513.469 500.083 481.279Z" stroke="#CC0001" stroke-width="10" stroke-miterlimit="10"/>
<path d="M447.266 302.56C402.095 307.694 392.273 324.806 375.746 356.177C369.392 368.238 349.64 399.812 340.414 437.173C326.167 494.903 256.149 508.201 260.346 528.436C263.833 545.263 326.19 546.689 364.634 543.837C418.351 539.844 472.879 535.8 509.953 495.639C530.551 473.322 537.743 438.362 552.124 368.441C566.722 297.472 568.024 250.489 564.092 249.799C559.532 249 543.291 267.766 529.614 281.17C503.616 306.644 455.575 301.616 447.266 302.56Z" stroke="#CC0001" stroke-width="10" stroke-miterlimit="10"/>
<path d="M79.9789 165.38C85.1078 185.059 121.922 175.816 165.746 220.138C181.449 236.021 191.977 252.634 212.761 255.217C214.858 255.477 235.679 257.756 250.373 244.38C268.86 227.553 257.576 204.21 279.152 171.655C287.099 159.662 288.421 163.144 294.254 153.687C319.146 113.318 281.181 72.3349 303.087 31.3378C313.171 12.4663 328.161 8.13416 326.737 5.67006C320.588 -4.9022 66.1194 112.354 79.9789 165.38Z" stroke="#CC0001" stroke-width="10" stroke-miterlimit="10"/>
<path d="M218.46 228.315C219.719 228.144 233.447 229.17 242.865 219.713C254.772 207.772 246.284 191.331 259.927 169.134C264.948 160.96 265.646 163.176 269.219 156.71C284.463 129.12 257.103 101.365 270.501 74.3569C276.701 61.8539 286.489 58.9876 285.033 57.767C278.448 52.2 110.485 134.442 123.677 170.229C128.624 183.65 155.628 178.887 186.526 207.795C197.762 218.299 205.37 230.092 218.46 228.315Z" stroke="#CC0001" stroke-width="10" stroke-miterlimit="10"/>
<path d="M224.158 201.409C224.517 200.505 231.231 200.525 235.357 195.047C240.713 187.939 235.009 178.471 240.702 166.615C242.791 162.263 242.876 163.193 244.187 159.734C249.814 144.855 233.003 130.412 237.918 117.373C240.218 111.236 244.492 110.189 243.352 109.861C235.02 111.045 155.021 156.611 167.361 175.077C172.18 182.293 189.427 181.948 207.293 195.452C214.083 200.585 218.528 204.344 224.158 201.409Z" stroke="#CC0001" stroke-width="10" stroke-miterlimit="10"/>
<path d="M229.857 174.507C225.435 161.573 208.025 157.175 201.648 161.958C192.245 169.02 200.266 178.214 211.051 179.925C219.112 181.195 234.918 189.308 229.857 174.507Z" stroke="#CC0001" stroke-width="10" stroke-miterlimit="10"/>
</svg>
