<svg width="420" height="420" viewBox="0 0 420 420" fill="none" xmlns="http://www.w3.org/2000/svg">
<path d="M213.163 0.310745H206.948V153.813H213.163V0.310745Z" fill="#CC0001"/>
<path d="M213.163 266.298H206.948V419.799H213.163V266.298Z" fill="#CC0001"/>
<path d="M153.813 206.948H0.311035V213.162H153.813V206.948Z" fill="#CC0001"/>
<path d="M419.8 206.948H266.298V213.162H419.8V206.948Z" fill="#CC0001"/>
<path d="M210.056 353.924C130.508 353.924 65.876 289.292 65.876 209.744C65.876 130.197 130.508 65.5646 210.056 65.5646C289.603 65.5646 354.235 130.197 354.235 209.744C354.235 289.292 289.293 353.924 210.056 353.924ZM210.056 72.0899C133.926 72.0899 72.0906 133.926 72.0906 210.055C72.0906 286.185 133.926 348.02 210.056 348.02C286.185 348.02 348.021 286.185 348.021 210.055C348.021 133.926 285.875 72.0899 210.056 72.0899Z" fill="#CC0001"/>
<path d="M213.163 206.948H266.298C264.744 178.36 241.75 155.366 213.163 153.813V206.948Z" fill="#CC0001"/>
<path d="M206.948 206.948V153.813C178.361 155.366 155.366 178.36 153.812 206.948H206.948Z" fill="#CC0001"/>
<path d="M206.948 213.162H153.812C155.366 241.75 178.361 264.744 206.948 266.298V213.162Z" fill="#CC0001"/>
<path d="M213.163 213.162V266.298C241.75 264.744 264.744 241.75 266.298 213.162H213.163Z" fill="#CC0001"/>
</svg>
