<svg width="107" height="106" viewBox="0 0 107 106" fill="none" xmlns="http://www.w3.org/2000/svg">
<path d="M0.5 0V106H106.5V0H0.5ZM58.1848 82.6705C58.1848 92.9866 52.1277 97.6951 43.3022 97.6951C35.3286 97.6951 30.7147 93.5781 28.3487 88.5857L36.4643 83.688C38.0259 86.4563 39.4455 88.7987 42.8763 88.7987C46.1415 88.7987 48.2237 87.521 48.2237 82.5286V48.6701H58.1848V82.6705ZM81.7509 97.6951C72.4996 97.6951 66.5134 93.2942 63.6031 87.521L71.7188 82.8362C73.8482 86.3143 76.6402 88.8933 81.5379 88.8933C85.6549 88.8933 88.3049 86.8348 88.3049 83.9719C88.3049 80.5647 85.6076 79.358 81.0411 77.3469L78.5567 76.2821C71.3638 73.2299 66.608 69.3732 66.608 61.2576C66.608 53.7808 72.3103 48.1022 81.183 48.1022C87.5241 48.1022 92.067 50.3027 95.3321 56.0759L87.5714 61.0446C85.8679 57.9924 84.0223 56.7857 81.1594 56.7857C78.2491 56.7857 76.4036 58.6313 76.4036 61.0446C76.4036 64.0259 78.2491 65.2326 82.5317 67.1018L85.0161 68.1665C93.4866 71.7866 98.2424 75.5013 98.2424 83.8299C98.2424 92.7737 91.1915 97.6951 81.7509 97.6951Z" fill="#CC0001"/>
</svg>
