<svg width="130" height="130" viewBox="0 0 130 130" fill="none" xmlns="http://www.w3.org/2000/svg">
<path d="M48.1 5.20001C35.9256 5.20001 26 15.1256 26 27.3C26 35.8808 31.0698 43.1414 38.2434 46.8C31.0698 50.4586 26 57.7192 26 66.3C26 74.8808 31.0698 82.1414 38.2434 85.8C31.0698 89.4586 26 96.7192 26 105.3C26 117.474 35.9256 127.4 48.1 127.4C60.2744 127.4 70.2 117.474 70.2 105.3V85.8V77.1063C73.6876 83.7245 80.4234 88.4 88.4 88.4C99.8567 88.4 109.2 79.0567 109.2 67.6C109.2 58.1834 102.768 50.5146 94.1586 47.968C102.839 44.9844 109.2 36.9726 109.2 27.3C109.2 15.1256 99.2744 5.20001 87.1 5.20001H67.6H48.1ZM48.1 10.4H65V44.2H48.1C38.736 44.2 31.2 36.664 31.2 27.3C31.2 17.9361 38.736 10.4 48.1 10.4ZM70.2 10.4H87.1C96.464 10.4 104 17.9361 104 27.3C104 36.664 96.464 44.2 87.1 44.2H70.2V10.4ZM48.1 49.4H65V83.2H48.1C38.736 83.2 31.2 75.664 31.2 66.3C31.2 56.9361 38.736 49.4 48.1 49.4ZM70.2 49.4H78.8937C75.163 51.366 72.166 54.363 70.2 58.0938V49.4ZM88.4 52C97.0464 52 104 58.9536 104 67.6C104 76.2465 97.0464 83.2 88.4 83.2C79.7536 83.2 72.8 76.2465 72.8 67.6C72.8 58.9536 79.7536 52 88.4 52ZM48.1 88.4H65V105.3C65 114.664 57.464 122.2 48.1 122.2C38.736 122.2 31.2 114.664 31.2 105.3C31.2 95.9361 38.736 88.4 48.1 88.4Z" fill="#CC0001"/>
</svg>
