<svg width="127" height="128" viewBox="0 0 127 128" fill="none" xmlns="http://www.w3.org/2000/svg">
<path d="M12.7002 10.66C12.0265 10.66 11.3805 10.9277 10.9042 11.404C10.4279 11.8803 10.1602 12.5263 10.1602 13.2V114.8C10.1602 115.474 10.4279 116.12 10.9042 116.596C11.3805 117.072 12.0265 117.34 12.7002 117.34H114.3C114.974 117.34 115.62 117.072 116.096 116.596C116.572 116.12 116.84 115.474 116.84 114.8V13.2C116.84 12.5263 116.572 11.8803 116.096 11.404C115.62 10.9277 114.974 10.66 114.3 10.66H12.7002ZM15.2402 15.74H111.76V112.26H15.2402V15.74ZM38.1002 58.92V67.6711H50.8002V107.18H60.9602V67.6711H73.6602V58.92H38.1002ZM93.1963 58.9448C85.2852 58.9133 76.2448 61.3107 76.2448 72.4435C76.2448 86.9977 95.8554 87.0013 95.8554 93.5672C95.8554 94.1895 96.1193 98.7117 89.1978 98.7117C82.2763 98.7117 76.5077 94.3609 76.5077 94.3609V104.923C76.5077 104.923 106.685 114.683 106.685 92.6742C106.683 78.3867 86.891 79.1013 86.891 72.002C86.891 69.2511 88.8452 66.6789 94.258 66.6789C99.6707 66.6789 104.463 69.8737 104.463 69.8737L104.82 60.4628C104.82 60.4628 99.3494 58.9693 93.1963 58.9448Z" fill="#CC0001"/>
</svg>
