<svg width="140" height="116" viewBox="0 0 140 116" fill="none" xmlns="http://www.w3.org/2000/svg">
<path d="M16.8002 9.28C13.7396 9.28 11.2002 11.3841 11.2002 13.92V102.08C11.2002 104.616 13.7396 106.72 16.8002 106.72H123.2C126.261 106.72 128.8 104.616 128.8 102.08V13.92C128.8 11.3841 126.261 9.28 123.2 9.28H16.8002ZM16.8002 13.92H123.2V102.08H16.8002V13.92ZM55.7978 32.48L42.0002 83.52H48.7158L52.708 68.5941H66.1502L70.0439 83.52H76.8525L63.4158 32.48H55.7978ZM91.6564 32.48C89.3492 32.48 87.5002 33.9312 87.5002 36.105C87.5002 38.2788 89.2563 39.73 91.5635 39.73H91.6564C94.2408 39.73 95.9002 38.2788 95.9002 36.105C95.9002 33.9312 94.2408 32.48 91.6564 32.48ZM59.4346 38.1395H59.7025C60.4193 41.8515 61.2292 46.0084 62.1252 49.5719L65.3025 62.6445L53.84 62.64L56.9244 49.6489C57.8204 46.2315 58.715 41.9258 59.4346 38.1395ZM88.2002 44.08V83.52H95.2002V44.08H88.2002Z" fill="#CC0001"/>
</svg>
