<svg width="145" height="122" viewBox="0 0 145 122" fill="none" xmlns="http://www.w3.org/2000/svg">
<path d="M17.4001 9.76001C14.2302 9.76001 11.6001 11.9729 11.6001 14.64V107.36C11.6001 110.027 14.2302 112.24 17.4001 112.24H127.6C130.77 112.24 133.4 110.027 133.4 107.36V14.64C133.4 11.9729 130.77 9.76001 127.6 9.76001H17.4001ZM17.4001 14.64H127.6V107.36H17.4001V14.64ZM53.8993 34.16C49.7233 34.16 46.3826 34.5504 43.5058 35.1751L43.5001 87.84H50.6481V65.4654C51.6689 65.541 52.5966 65.5417 53.803 65.5417C59.371 65.5417 65.2171 63.5935 68.5579 59.6895C70.9736 57.0347 72.3585 53.7553 72.3585 48.9144C72.3585 44.3101 70.7826 40.4806 67.8159 37.982C64.5679 35.3273 59.65 34.16 53.8993 34.16ZM55.0321 38.1631C63.01 38.1631 65.6069 42.9979 65.6069 48.3854C65.6069 55.803 60.8734 59.7085 53.9163 59.7085C52.7099 59.7085 51.8742 59.6317 51.039 59.556V38.5539C51.967 38.3172 53.3617 38.1631 55.0321 38.1631ZM91.9788 48.8C84.7549 48.8 79.1724 53.1155 79.1724 59.3082C79.1724 63.6197 82.4399 66.9127 88.5067 70.1262C93.2221 72.6345 94.471 74.6737 94.471 77.5749C94.471 80.9445 91.7813 83.0601 87.6401 83.0601C84.6531 83.0601 81.7652 81.9627 80.1296 81.1014L78.3001 85.6431C80.3214 86.9753 84.0778 87.84 87.4476 87.84C95.15 87.84 101.5 84.1557 101.5 76.5502C101.5 71.2994 97.2678 67.769 91.8825 64.9459C87.2599 62.4401 86.1052 60.9492 86.1052 58.4409C86.1052 55.935 88.1225 53.5847 92.0694 53.5847C94.5721 53.5847 96.5012 54.2899 98.3282 55.3099L100.254 50.7587C98.3284 49.7412 95.6386 48.8 91.9788 48.8Z" fill="#CC0001"/>
</svg>
