<svg width="101" height="102" viewBox="0 0 101 102" fill="none" xmlns="http://www.w3.org/2000/svg">
<g clip-path="url(#clip0_25_88)">
<path d="M47.1961 0.578912C46.9791 0.598637 46.2887 0.667673 45.6674 0.716985C31.3375 2.00895 17.9149 9.741 9.41354 21.6251C4.67963 28.2328 1.65189 35.7282 0.507866 43.6674C0.103511 46.4387 0.0541992 47.2573 0.0541992 51.0148C0.0541992 54.7723 0.103511 55.5909 0.507866 58.3622C3.24959 77.3077 16.7314 93.2255 35.0161 99.1232C38.2904 100.178 41.7422 100.898 45.6674 101.332C47.1961 101.5 53.8038 101.5 55.3325 101.332C62.1079 100.583 67.8478 98.9062 73.5087 96.0166C74.3766 95.5728 74.5443 95.4544 74.4259 95.3558C74.347 95.2966 70.6487 90.3359 66.2106 84.3396L58.1433 73.4417L48.0344 58.4806C42.472 50.2554 37.8959 43.5293 37.8565 43.5293C37.817 43.5194 37.7776 50.1666 37.7578 58.2833C37.7283 72.4949 37.7184 73.0669 37.5409 73.4023C37.2845 73.8855 37.0872 74.0828 36.673 74.2997C36.3574 74.4575 36.0812 74.4871 34.592 74.4871H32.8859L32.4322 74.2011C32.1363 74.0137 31.9193 73.7672 31.7714 73.4812L31.5643 73.0374L31.584 53.2634L31.6136 33.4796L31.9193 33.095C32.0771 32.8879 32.4125 32.6216 32.6492 32.4934C33.0535 32.2961 33.2113 32.2764 34.9175 32.2764C36.9294 32.2764 37.2647 32.3553 37.7874 32.9273C37.9354 33.0851 43.4089 41.33 49.9575 51.2614C56.5061 61.1927 65.4611 74.7534 69.8597 81.4105L77.8482 93.5115L78.2525 93.2452C81.8325 90.9177 85.6197 87.604 88.6178 84.1522C94.9987 76.8245 99.1113 67.8892 100.492 58.3622C100.896 55.5909 100.946 54.7723 100.946 51.0148C100.946 47.2573 100.896 46.4387 100.492 43.6674C97.7503 24.7219 84.2685 8.80408 65.9838 2.90642C62.7588 1.86101 59.3267 1.14106 55.4804 0.707122C54.5336 0.608499 48.0147 0.500014 47.1961 0.578912ZM67.8478 31.0929C68.3212 31.3296 68.7058 31.7833 68.8439 32.2567C68.9228 32.5131 68.9425 37.9965 68.9228 50.354L68.8932 68.0865L65.7668 63.2934L62.6306 58.5003V45.6103C62.6306 37.2766 62.6701 32.592 62.7292 32.3652C62.887 31.8129 63.2322 31.3789 63.7056 31.1225C64.11 30.9154 64.2579 30.8957 65.8063 30.8957C67.2659 30.8957 67.5223 30.9154 67.8478 31.0929Z" fill="#CC0001"/>
<path d="M77.3552 93.7285C77.01 93.9454 76.9015 94.0934 77.2072 93.9257C77.4242 93.7975 77.7792 93.5312 77.7201 93.5214C77.6905 93.5214 77.5228 93.62 77.3552 93.7285ZM76.6747 94.1723C76.4971 94.3103 76.4971 94.3202 76.7141 94.2117C76.8325 94.1526 76.9311 94.0835 76.9311 94.0638C76.9311 93.9849 76.8818 94.0046 76.6747 94.1723ZM76.1815 94.4681C76.004 94.6062 76.004 94.6161 76.221 94.5076C76.3393 94.4484 76.438 94.3794 76.438 94.3597C76.438 94.2808 76.3887 94.3005 76.1815 94.4681ZM75.6884 94.764C75.5109 94.9021 75.5109 94.9119 75.7279 94.8035C75.8462 94.7443 75.9448 94.6753 75.9448 94.6555C75.9448 94.5766 75.8955 94.5964 75.6884 94.764ZM74.9389 95.1585C74.5641 95.3558 74.5838 95.4347 74.9586 95.2473C75.1263 95.1585 75.2545 95.0697 75.2545 95.05C75.2545 94.981 75.2446 94.9908 74.9389 95.1585Z" fill="#CC0001"/>
</g>
<defs>
<clipPath id="clip0_25_88">
<rect width="101" height="101" fill="white" transform="translate(0 0.5)"/>
</clipPath>
</defs>
</svg>
