<svg width="85" height="84" viewBox="0 0 85 84" fill="none" xmlns="http://www.w3.org/2000/svg">
<g clip-path="url(#clip0_24_67)">
<path d="M69.1109 29.0719C68.225 28.7766 67.3391 28.4976 66.4531 28.2351C66.6008 27.6281 66.732 27.0211 66.8633 26.4141C68.8812 16.6359 67.5523 8.77734 63.0734 6.18515C58.7586 3.70781 51.7203 6.28359 44.6 12.4851C43.8945 13.0922 43.2055 13.732 42.5492 14.3719C42.1062 13.9453 41.6469 13.5187 41.1875 13.1086C33.7227 6.48046 26.2414 3.6914 21.7625 6.29999C17.4641 8.79374 16.1844 16.193 17.9891 25.4461C18.1695 26.3648 18.3664 27.2672 18.5961 28.1859C17.5461 28.4812 16.5125 28.8094 15.5445 29.1539C6.78359 32.1891 0.5 36.9797 0.5 41.9344C0.5 47.0531 7.19375 52.1883 16.2992 55.3055C17.0375 55.5516 17.7758 55.7976 18.5305 56.0109C18.2844 56.9953 18.0711 57.9633 17.8742 58.9641C16.1516 68.0695 17.4969 75.2883 21.7953 77.7656C26.225 80.325 33.6734 77.7 40.925 71.3508C41.4992 70.8422 42.0734 70.3172 42.6477 69.7594C43.3695 70.4648 44.1242 71.1375 44.8789 71.7937C51.9008 77.8312 58.8406 80.2758 63.1227 77.7984C67.5523 75.2391 68.9961 67.4789 67.1258 58.0289C66.9781 57.307 66.8141 56.5687 66.6336 55.8141C67.1586 55.6664 67.6672 55.5023 68.1758 55.3383C77.6422 52.2047 84.5 47.1351 84.5 41.9344C84.5 36.9633 78.0359 32.1398 69.1109 29.0719ZM46.9133 15.143C53.0164 9.82734 58.7094 7.74374 61.3016 9.23671C64.0742 10.8281 65.1406 17.2594 63.4016 25.7086C63.2867 26.2664 63.1719 26.8078 63.0242 27.3492C59.382 26.5289 55.6906 25.9383 51.9828 25.6101C49.85 22.5586 47.5203 19.6383 44.9938 16.8984C45.6336 16.2914 46.257 15.7172 46.9133 15.143ZM27.9312 50.4492C28.768 51.8765 29.6211 53.3039 30.5234 54.6984C27.9641 54.4195 25.4211 54.0094 22.9109 53.468C23.6328 51.1055 24.5352 48.6609 25.5852 46.1672C26.3398 47.6109 27.1109 49.0383 27.9312 50.4492ZM22.9602 30.7125C25.3227 30.1875 27.8328 29.7609 30.4414 29.4328C29.5719 30.7945 28.7188 32.1891 27.9148 33.6C27.1109 34.9945 26.3234 36.4219 25.5852 37.8656C24.5516 35.4211 23.682 33.0258 22.9602 30.7125ZM27.4555 42.0164C28.5383 39.7523 29.7195 37.5375 30.9664 35.3555C32.2133 33.1734 33.5586 31.057 34.9695 28.9734C37.4305 28.793 39.9406 28.6945 42.5 28.6945C45.0594 28.6945 47.5859 28.793 50.0305 28.9734C51.425 31.0406 52.7539 33.157 54.0172 35.3226C55.2805 37.4883 56.4617 39.7031 57.5773 41.9508C56.4781 44.2148 55.2969 46.4461 54.0336 48.6445C52.7867 50.8265 51.4578 52.943 50.0633 55.043C47.6188 55.2234 45.0758 55.3055 42.5 55.3055C39.9242 55.3055 37.4305 55.2234 35.0187 55.0758C33.5914 52.9922 32.2461 50.8594 30.9828 48.6773C29.7195 46.4953 28.5547 44.2805 27.4555 42.0164ZM57.0852 50.4164C57.9219 48.9726 58.7094 47.5125 59.4805 46.0359C60.5305 48.4148 61.4492 50.8265 62.2531 53.3039C59.7102 53.8781 57.1344 54.3211 54.5422 54.6164C55.4281 53.2383 56.2648 51.8273 57.0852 50.4164ZM59.4477 37.8656C58.6766 36.4219 57.8891 34.9781 57.0687 33.5672C56.2648 32.1726 55.4281 30.7945 54.5586 29.4328C57.2 29.7609 59.7266 30.2039 62.0891 30.7453C61.3344 33.1734 60.4484 35.5359 59.4477 37.8656ZM42.5328 19.4086C44.2555 21.2789 45.8797 23.2476 47.3891 25.282C44.1406 25.1344 40.8758 25.1344 37.6273 25.282C39.2352 23.1656 40.8922 21.1969 42.5328 19.4086ZM23.5016 9.35156C26.2578 7.74374 32.3773 10.0406 38.825 15.75C39.2352 16.1109 39.6453 16.5047 40.0719 16.8984C37.5289 19.6383 35.1828 22.5586 33.0336 25.6101C29.3258 25.9383 25.6508 26.5125 22.0086 27.3164C21.7953 26.4797 21.6148 25.6266 21.4344 24.7734C19.8922 16.8328 20.9094 10.8445 23.5016 9.35156ZM19.482 52.5984C18.793 52.4016 18.1203 52.1883 17.4477 51.9586C13.9531 50.8594 9.98281 49.1203 7.11172 46.8398C5.45469 45.6914 4.33906 43.9195 4.02734 41.9344C4.02734 38.932 9.21172 35.093 16.693 32.4844C17.6281 32.1562 18.5797 31.8609 19.5312 31.582C20.6469 35.1422 21.9922 38.6367 23.5508 42.0164C21.9758 45.4453 20.6141 48.9891 19.482 52.5984ZM38.6117 68.6765C35.9047 71.1539 32.7711 73.1226 29.3586 74.468C27.5375 75.3375 25.4375 75.4195 23.5672 74.6812C20.9586 73.1719 19.8758 67.3805 21.3523 59.5875C21.5328 58.6687 21.7297 57.75 21.9594 56.8476C25.6344 57.6351 29.3422 58.1765 33.0992 58.4555C35.2648 61.5234 37.6437 64.4601 40.1867 67.2164C39.6617 67.725 39.1367 68.2172 38.6117 68.6765ZM42.6312 64.6898C40.9578 62.8851 39.2844 60.8836 37.6602 58.7344C39.2352 58.8 40.8594 58.8328 42.5 58.8328C44.1898 58.8328 45.8469 58.8 47.4875 58.718C45.9781 60.8015 44.3539 62.7867 42.6312 64.6898ZM64.0742 69.6117C63.9266 71.6133 62.9422 73.4836 61.3672 74.7469C58.7586 76.2562 53.1969 74.2875 47.1922 69.1359C46.5031 68.5453 45.8141 67.9055 45.1086 67.2492C47.6187 64.4765 49.932 61.5398 52.032 58.4555C55.7891 58.1437 59.5297 57.5695 63.2211 56.7328C63.3852 57.4055 63.5328 58.0781 63.6641 58.7344C64.468 62.2781 64.5992 65.9695 64.0742 69.6117ZM67.0602 51.975C66.6008 52.1226 66.1414 52.2703 65.6656 52.4016C64.5172 48.825 63.1063 45.3305 61.482 41.9344C63.057 38.5875 64.3859 35.1422 65.5016 31.6148C66.3547 31.8609 67.175 32.1234 67.9625 32.3859C75.6078 35.0109 80.9727 38.9156 80.9727 41.9016C80.9727 45.1172 75.2469 49.268 67.0602 51.975ZM42.5 49.514C46.6508 49.514 50.0141 46.1508 50.0141 42C50.0141 37.8492 46.6508 34.4859 42.5 34.4859C38.3492 34.4859 34.9859 37.8492 34.9859 42C34.9859 46.1508 38.3492 49.514 42.5 49.514Z" fill="#CC0001"/>
</g>
<defs>
<clipPath id="clip0_24_67">
<rect width="84" height="84" fill="white" transform="translate(0.5)"/>
</clipPath>
</defs>
</svg>
