<svg width="130" height="130" viewBox="0 0 130 130" fill="none" xmlns="http://www.w3.org/2000/svg">
<path d="M65.0002 5.20001C32.0073 5.20001 5.2002 32.0071 5.2002 65C5.2002 97.9929 32.0073 124.8 65.0002 124.8C97.9931 124.8 124.8 97.9929 124.8 65C124.8 32.0071 97.9931 5.20001 65.0002 5.20001ZM65.0002 10.4C95.1821 10.4 119.6 34.8181 119.6 65C119.6 95.1819 95.1821 119.6 65.0002 119.6C34.8183 119.6 10.4002 95.1819 10.4002 65C10.4002 34.8181 34.8183 10.4 65.0002 10.4ZM39.3049 44.4133C37.4407 44.4133 35.3919 44.9686 33.5615 46.084C25.5847 50.9434 20.4357 62.0292 21.4705 70.4844C21.7981 73.1702 22.9141 76.1079 25.0201 78.0813C26.4397 79.3969 29.0092 81.0164 32.033 81.0164C35.309 81.0164 38.0787 79.7558 40.5643 78.1828C42.2491 77.1064 43.6518 75.7994 44.84 74.4656C45.6746 76.231 47.4105 77.4211 49.2123 77.4211C50.6241 77.4211 51.9488 76.7131 52.9498 75.3949C53.2514 76.6117 54.1 77.4211 55.6158 77.4211C56.7234 77.4211 59.0911 76.317 61.2881 74.6738L61.0646 75.8469C61.0048 76.0965 60.9829 76.3487 61.0037 76.6035C61.0713 77.1625 61.454 77.416 61.9584 77.416C63.0166 77.416 64.5586 76.4017 64.8732 74.8313L65.3557 72.607C65.9745 69.8224 70.0461 65.6145 71.2057 65.6145C71.3539 65.6145 71.4691 65.7164 71.4951 65.9192C71.5809 66.629 70.2016 68.9569 69.601 72.7035C69.4866 73.3405 69.4674 73.9885 69.535 74.6281C69.7378 76.2999 70.7289 77.4109 72.5463 77.4109C74.1167 77.4109 77.4694 76.0885 79.8588 73.4703C80.0382 74.9341 80.3481 76.1836 80.8135 76.9844C81.0137 77.338 81.4692 77.4363 81.8748 77.4363C82.3818 77.4363 83.086 77.2376 83.84 76.832C85.6548 75.818 88.0271 73.5347 90.2943 70.2457C90.5959 70.2951 90.8433 70.2965 91.1475 70.2965C92.0549 70.2965 93.0703 69.975 94.0115 69.3926C93.6553 70.534 93.5235 71.693 93.6561 72.7746C93.9759 75.4058 96.2423 77.4363 98.5615 77.4363C99.9213 77.4363 101.252 76.7271 102.253 75.4609C102.558 77.1353 103.632 78.9069 106.229 79.9703C106.393 80.0717 106.597 80.0719 106.747 80.0719C107.252 80.0719 107.561 79.7208 107.514 79.3152C107.496 79.1592 107.36 78.9061 107.133 78.7059C106.509 78.1495 105.843 77.1839 105.661 75.7149C105.575 75.0051 105.617 74.1466 105.849 73.1352C106.413 70.7562 106.535 70.098 106.499 69.7938C106.426 69.1854 105.992 68.9305 105.488 68.9305C104.427 68.9305 102.993 69.9904 102.619 71.4594C102.037 73.685 100.453 75.207 99.3943 75.207C98.0839 75.207 97.4105 73.7866 97.231 72.3176C96.7839 68.675 99.1069 64.1672 102.487 64.1672C103.496 64.1672 104.551 64.5751 104.676 65.5891C104.868 67.1569 103.209 66.8 103.289 67.4578C103.37 68.1156 104.506 68.3211 105.26 68.3211C106.016 68.3211 108.225 67.8154 107.91 65.2336C107.663 63.2082 105.526 62.2426 103.056 62.2426C100.154 62.2426 97.6794 63.7183 95.992 65.7566C95.7684 65.8867 95.5332 66.1105 95.2811 66.3965C94.7247 67.0569 93.7172 67.666 92.4068 67.666C92.256 67.666 91.9041 67.6152 91.9041 67.6152C92.7569 65.946 93.3615 64.2257 93.3615 62.7047C93.3615 60.2737 91.8517 59.0586 90.1877 59.0586C88.0713 59.0586 85.9018 60.9333 85.9018 64.5785C85.9018 66.7547 86.7574 68.5271 88.2732 69.4891C86.5598 72.3257 84.1886 74.6586 83.835 74.6586C83.6348 74.6586 83.5898 74.4552 83.5404 74.2523C83.2882 73.293 83.0326 71.4156 83.0326 70.2508C83.0326 68.176 83.4364 66.1009 84.1904 63.8727C84.2918 63.6205 84.3428 63.3645 84.3428 63.1617C84.3428 62.5559 83.9394 62.2527 83.383 62.2527C82.278 62.2527 80.6122 63.5142 80.2092 64.8324C79.8062 66.096 79.6557 67.8193 79.6557 69.9461C79.6557 70.3413 79.663 70.7293 79.676 71.1141C77.622 73.8285 75.0734 74.7957 74.283 74.7957C73.2924 74.7957 73.1022 73.9782 73.2166 73.4348C73.7522 70.8816 74.5607 67.9129 75.2783 65.9395C75.6137 64.9775 75.7622 64.1207 75.6998 63.6137C75.588 62.7011 74.9277 62.2477 74.0697 62.2477C72.0521 62.2477 68.6793 64.3661 66.5135 67.2547L67.2041 64.1316C67.2691 63.8301 67.2884 63.5701 67.265 63.3699C67.1922 62.7615 66.8097 62.5117 66.3053 62.5117C63.8327 62.5117 63.3932 63.7654 63.167 64.9848C63.1098 65.2786 62.3935 68.9971 61.8111 72.0027C59.9599 73.6641 57.9569 74.7399 57.4135 74.7399C56.7271 74.7399 56.5024 74.2007 56.4842 73.8055C56.4582 73.3531 56.9612 71.1574 57.0834 70.4996C57.1484 70.198 57.1677 69.9458 57.1443 69.743C57.0767 69.184 56.6927 68.9305 56.1389 68.9305C55.0755 68.9305 53.6364 69.941 53.2646 71.4594C52.677 73.6876 51.1541 75.207 50.0959 75.207C48.7855 75.207 48.056 73.793 47.8818 72.3734C47.497 69.23 49.503 64.1672 53.1326 64.1672C54.1414 64.1672 55.1914 64.5218 55.3162 65.5332C55.5164 67.153 53.905 66.748 53.9908 67.4578C54.0688 68.1156 55.2031 68.316 55.9104 68.316C56.7189 68.316 58.8705 67.8091 58.5611 65.2793C58.3141 63.2513 56.2284 62.2375 53.7064 62.2375C47.8772 62.2375 43.9604 67.9703 44.3322 72.5359C42.8242 74.2909 41.3196 75.3631 38.665 76.7203C37.144 77.4795 35.4376 77.934 33.8256 77.934C28.987 77.934 26.6231 73.4793 26.1525 69.6313C24.9461 59.7591 33.6254 46.1906 39.6756 46.1906C41.0874 46.1906 42.3463 47.4153 42.5803 49.3289C42.9417 52.3033 42.886 54.4103 39.8076 56.9817C39.4722 57.2598 39.3744 57.7167 39.5486 57.9871C39.8086 58.3901 40.6369 58.4285 42.3061 57.5809C45.5795 55.9299 46.7604 53.3819 46.399 50.4309C45.9986 47.1549 43.1373 44.4133 39.3049 44.4133ZM88.9791 61.0137C89.5329 61.0137 90.2385 61.8216 90.2385 63.6441C90.2385 64.6087 90.0386 65.5716 89.685 66.5336C88.7776 65.5742 88.0701 64.104 88.0701 62.6844C88.0701 61.9252 88.3239 61.0163 88.9791 61.0137Z" fill="#CC0001"/>
</svg>
